<svg xmlns="http://www.w3.org/2000/svg" xmlns:xlink="http://www.w3.org/1999/xlink" width="300" zoomAndPan="magnify" viewBox="0 0 224.87999 168.749997" height="225" preserveAspectRatio="xMidYMid meet" version="1.0"><defs><g/><clipPath id="b64a6d9c7f"><path d="M 0.105469 0 L 224.652344 0 L 224.652344 168.5 L 0.105469 168.5 Z M 0.105469 0 " clip-rule="nonzero"/></clipPath><clipPath id="624aeacbfc"><path d="M 27.234375 64.570312 L 197 64.570312 L 197 111 L 27.234375 111 Z M 27.234375 64.570312 " clip-rule="nonzero"/></clipPath></defs><g clip-path="url(#b64a6d9c7f)"><path fill="#ffffff" d="M 0.105469 0 L 224.773438 0 L 224.773438 168.5 L 0.105469 168.5 Z M 0.105469 0 " fill-opacity="1" fill-rule="nonzero"/><path fill="#545454" d="M 0.105469 0 L 224.773438 0 L 224.773438 168.5 L 0.105469 168.5 Z M 0.105469 0 " fill-opacity="1" fill-rule="nonzero"/></g><g clip-path="url(#624aeacbfc)"><path fill="#ff914d" d="M 29.941406 65.972656 C 29.851562 66.09375 29.839844 66.222656 29.894531 66.363281 C 29.554688 66.753906 28.773438 66.453125 28.640625 67.171875 C 27.492188 68.3125 27.925781 69.480469 28.609375 70.636719 C 30.527344 73.863281 32.929688 76.71875 35.511719 79.421875 C 44.761719 89.109375 55.605469 96.414062 67.859375 101.871094 C 89.246094 111.40625 111.324219 112.722656 133.953125 108.066406 C 144.445312 105.910156 154.363281 101.960938 164.101562 97.550781 C 169.820312 94.957031 175.367188 92.03125 180.988281 89.234375 C 181.148438 89.046875 181.296875 88.855469 181.457031 88.667969 C 181.734375 88.652344 182.042969 88.558594 182.269531 88.660156 C 182.269531 88.660156 182.269531 88.660156 182.277344 88.667969 C 182.453125 88.75 182.332031 89 182.132812 89.101562 C 181.039062 91.308594 179.519531 93.214844 177.898438 95.039062 C 176.789062 96.289062 175.804688 97.582031 175.222656 99.160156 C 172.8125 101.828125 172.730469 104.6875 174.875 107.171875 C 181.570312 104.589844 185.652344 99.285156 189.363281 93.550781 C 190.742188 91.417969 192.265625 89.386719 193.753906 87.328125 C 197.324219 82.40625 196.527344 82.917969 194.554688 78.382812 C 194.113281 77.367188 193.445312 76.472656 192.6875 75.652344 C 192.410156 75.347656 192.125 75.09375 191.691406 75.09375 C 191.121094 73.964844 190.0625 73.953125 189.027344 73.992188 C 185.953125 74.105469 182.886719 74.257812 179.816406 74.394531 C 179.171875 74.042969 178.503906 74.148438 177.835938 74.289062 C 177.203125 73.910156 176.527344 74.027344 175.859375 74.117188 C 175.457031 73.777344 174.953125 73.902344 174.492188 73.839844 C 168.25 72.960938 162.199219 71.398438 156.433594 68.804688 C 156 68.609375 155.550781 68.453125 155.109375 68.273438 C 154.585938 68.0625 153.992188 67.816406 153.574219 68.308594 C 153.261719 68.679688 153.347656 69.355469 153.625 69.664062 C 154.851562 71.039062 155.035156 72.9375 156.097656 74.371094 C 156.574219 75.007812 157.265625 75.398438 157.980469 75.78125 C 163.460938 78.78125 169.324219 80.722656 175.398438 82.074219 C 175.941406 82.191406 176.515625 82.230469 177.015625 82.457031 C 177.59375 82.722656 177.429688 83.214844 177.140625 83.652344 C 176.511719 83.574219 176.0625 83.828125 175.773438 84.375 C 175.183594 84.421875 174.617188 84.507812 174.320312 85.121094 C 174.175781 85.050781 174.082031 85.09375 174.035156 85.246094 C 173.476562 85.273438 172.957031 85.386719 172.65625 85.933594 C 172.277344 86.035156 171.878906 86.085938 171.527344 86.25 C 167.644531 88.03125 163.796875 89.871094 159.898438 91.605469 C 156.359375 93.183594 152.773438 94.648438 149.210938 96.15625 C 148.21875 96.441406 147.222656 96.6875 146.25 97.007812 C 136.773438 100.078125 127.070312 101.964844 117.109375 102.394531 C 113.550781 102.546875 109.992188 102.589844 106.433594 102.679688 C 105.757812 102.300781 105.0625 102.453125 104.363281 102.589844 C 103.726562 102.210938 103.0625 102.34375 102.394531 102.472656 C 101.816406 102.066406 101.183594 102.238281 100.558594 102.300781 C 100.199219 102 99.800781 102.015625 99.390625 102.164062 C 99.253906 102.0625 99.113281 102.054688 98.96875 102.148438 C 98.566406 101.820312 98.066406 101.933594 97.613281 101.859375 C 95.367188 101.472656 93.0625 101.492188 90.863281 100.832031 C 90.667969 101.015625 90.015625 101.109375 90.8125 101.441406 C 91.339844 101.671875 91.371094 101.828125 91.226562 101.960938 C 91.101562 102.074219 90.84375 102.167969 90.652344 102.261719 C 83.601562 100.824219 76.804688 98.554688 70.15625 95.832031 C 69.5625 95.523438 68.960938 95.214844 68.371094 94.90625 C 64.824219 93.058594 61.269531 91.210938 57.726562 89.367188 C 57.65625 89.214844 57.554688 89.113281 57.429688 89.058594 C 57.339844 89.019531 57.246094 89 57.140625 89 C 57.023438 88.753906 56.828125 88.640625 56.566406 88.648438 C 56.457031 88.394531 56.261719 88.28125 55.992188 88.292969 C 55.890625 88.035156 55.695312 87.921875 55.417969 87.933594 C 55.316406 87.675781 55.125 87.550781 54.847656 87.570312 C 54.753906 87.304688 54.566406 87.183594 54.285156 87.203125 L 54.28125 87.195312 C 54.191406 86.9375 54.003906 86.8125 53.730469 86.832031 L 53.71875 86.824219 C 53.550781 86.691406 53.367188 86.566406 53.175781 86.453125 L 53.15625 86.441406 C 53.070312 86.179688 52.894531 86.054688 52.613281 86.066406 L 52.597656 86.054688 C 52.507812 85.796875 52.332031 85.667969 52.054688 85.683594 L 52.035156 85.667969 C 52.035156 85.667969 52.027344 85.664062 52.027344 85.664062 C 52.027344 85.664062 52.035156 85.667969 52.035156 85.667969 C 51.953125 85.40625 51.769531 85.277344 51.492188 85.292969 L 51.480469 85.285156 C 51.398438 85.019531 51.214844 84.894531 50.9375 84.90625 L 50.929688 84.898438 C 50.84375 84.636719 50.660156 84.503906 50.382812 84.507812 C 48.765625 83.203125 47.15625 81.898438 45.542969 80.589844 C 44.488281 80.175781 43.761719 79.324219 42.949219 78.597656 C 42.980469 78.472656 43.039062 78.371094 43.105469 78.28125 C 43.214844 78.144531 43.351562 78.046875 43.542969 77.992188 C 42.988281 77.378906 42.476562 76.722656 41.675781 76.402344 C 41.421875 76.324219 41.1875 76.21875 41.007812 76.015625 C 41.226562 76.144531 41.449219 76.273438 41.675781 76.402344 C 41.535156 76.167969 41.378906 75.964844 41.082031 76.011719 C 41.007812 75.601562 40.746094 75.355469 40.367188 75.203125 C 40.324219 74.9375 40.1875 74.773438 39.902344 74.761719 C 39.789062 74.507812 39.636719 74.3125 39.339844 74.28125 C 39.300781 74.148438 39.234375 74.046875 39.09375 73.992188 C 38.660156 73.296875 38.105469 72.730469 37.410156 72.292969 C 37.074219 71.820312 36.753906 71.335938 36.203125 71.078125 C 36.105469 70.699219 35.792969 70.496094 35.511719 70.273438 C 34.199219 68.40625 32.550781 66.792969 31.546875 64.578125 C 31 65.234375 30.078125 65.121094 29.941406 65.972656 Z M 174.117188 85.714844 C 174.113281 85.714844 174.113281 85.714844 174.105469 85.714844 C 174.105469 85.71875 174.113281 85.71875 174.113281 85.71875 C 174.105469 85.71875 174.101562 85.714844 174.101562 85.714844 C 174.101562 85.714844 174.105469 85.714844 174.105469 85.714844 C 174.105469 85.707031 174.105469 85.703125 174.101562 85.695312 C 174.113281 85.703125 174.113281 85.707031 174.117188 85.714844 Z M 50.835938 86.441406 C 50.875 86.476562 50.910156 86.515625 50.949219 86.554688 C 50.9375 86.546875 50.925781 86.539062 50.910156 86.535156 C 50.875 86.507812 50.835938 86.484375 50.796875 86.453125 C 50.804688 86.453125 50.816406 86.445312 50.835938 86.441406 Z M 57.6875 89.367188 C 57.6875 89.375 57.679688 89.375 57.679688 89.378906 C 57.667969 89.390625 57.664062 89.410156 57.648438 89.421875 L 57.605469 89.46875 L 57.679688 89.375 C 57.679688 89.367188 57.675781 89.367188 57.675781 89.359375 C 57.675781 89.367188 57.679688 89.367188 57.6875 89.367188 Z M 50.601562 86.527344 C 50.664062 86.503906 50.730469 86.476562 50.785156 86.457031 C 50.824219 86.484375 50.859375 86.507812 50.898438 86.535156 C 50.8125 86.488281 50.710938 86.484375 50.601562 86.527344 Z M 51.144531 86.71875 C 51.1875 86.75 51.234375 86.78125 51.269531 86.8125 C 51.269531 86.816406 51.277344 86.816406 51.277344 86.824219 C 51.234375 86.785156 51.1875 86.75 51.144531 86.71875 Z M 31.144531 70.117188 C 31.136719 70.117188 31.132812 70.109375 31.125 70.109375 C 31.125 70.109375 31.121094 70.105469 31.121094 70.105469 C 31.121094 70.097656 31.113281 70.09375 31.113281 70.085938 C 31.125 70.09375 31.132812 70.105469 31.144531 70.117188 Z M 31.730469 70.945312 C 31.730469 70.957031 31.730469 70.96875 31.742188 70.976562 C 31.742188 70.960938 31.730469 70.949219 31.730469 70.945312 Z M 40.597656 75.972656 C 40.550781 75.992188 40.507812 76.015625 40.464844 76.054688 C 40.457031 76.023438 40.449219 75.992188 40.445312 75.960938 C 40.496094 75.964844 40.546875 75.964844 40.597656 75.972656 Z M 39.464844 74.578125 C 39.398438 74.527344 39.347656 74.453125 39.316406 74.355469 C 39.316406 74.355469 39.316406 74.355469 39.320312 74.355469 C 39.359375 74.445312 39.402344 74.519531 39.464844 74.578125 Z M 39.464844 74.578125 " fill-opacity="1" fill-rule="nonzero"/></g><path fill="#ff914d" d="M 53.140625 86.441406 C 53.320312 86.566406 53.503906 86.683594 53.679688 86.8125 C 53.59375 86.546875 53.410156 86.425781 53.140625 86.441406 Z M 53.140625 86.441406 " fill-opacity="1" fill-rule="nonzero"/><g fill="#ffffff" fill-opacity="1"><g transform="translate(43.447094, 78.715112)"><g><path d="M 13.4375 0.65625 C 11.226562 0.65625 9.3125 0.25 7.6875 -0.5625 C 6.0625 -1.375 4.8125 -2.566406 3.9375 -4.140625 C 3.0625 -5.710938 2.625 -7.601562 2.625 -9.8125 C 2.625 -11.851562 3.0625 -13.566406 3.9375 -14.953125 C 4.8125 -16.335938 6.164062 -17.472656 8 -18.359375 C 9.832031 -19.242188 12.226562 -19.925781 15.1875 -20.40625 C 17.25 -20.738281 18.816406 -21.101562 19.890625 -21.5 C 20.960938 -21.894531 21.6875 -22.34375 22.0625 -22.84375 C 22.4375 -23.34375 22.625 -23.976562 22.625 -24.75 C 22.625 -25.851562 22.238281 -26.695312 21.46875 -27.28125 C 20.695312 -27.863281 19.414062 -28.15625 17.625 -28.15625 C 15.707031 -28.15625 13.882812 -27.726562 12.15625 -26.875 C 10.425781 -26.019531 8.925781 -24.894531 7.65625 -23.5 L 7.03125 -23.5 L 3.40625 -28.96875 C 5.15625 -30.90625 7.289062 -32.414062 9.8125 -33.5 C 12.332031 -34.582031 15.082031 -35.125 18.0625 -35.125 C 22.625 -35.125 25.925781 -34.15625 27.96875 -32.21875 C 30.007812 -30.28125 31.03125 -27.53125 31.03125 -23.96875 L 31.03125 -9 C 31.03125 -7.457031 31.707031 -6.6875 33.0625 -6.6875 C 33.582031 -6.6875 34.09375 -6.78125 34.59375 -6.96875 L 35.03125 -6.84375 L 35.65625 -0.8125 C 35.175781 -0.5 34.507812 -0.242188 33.65625 -0.046875 C 32.800781 0.148438 31.863281 0.25 30.84375 0.25 C 28.78125 0.25 27.171875 -0.144531 26.015625 -0.9375 C 24.859375 -1.726562 24.03125 -2.96875 23.53125 -4.65625 L 22.875 -4.71875 C 21.1875 -1.132812 18.039062 0.65625 13.4375 0.65625 Z M 16.1875 -5.8125 C 18.1875 -5.8125 19.785156 -6.484375 20.984375 -7.828125 C 22.179688 -9.171875 22.78125 -11.039062 22.78125 -13.4375 L 22.78125 -16.9375 L 22.1875 -17.0625 C 21.664062 -16.644531 20.984375 -16.296875 20.140625 -16.015625 C 19.296875 -15.734375 18.082031 -15.457031 16.5 -15.1875 C 14.625 -14.875 13.273438 -14.335938 12.453125 -13.578125 C 11.628906 -12.816406 11.21875 -11.738281 11.21875 -10.34375 C 11.21875 -8.863281 11.65625 -7.738281 12.53125 -6.96875 C 13.40625 -6.195312 14.625 -5.8125 16.1875 -5.8125 Z M 16.1875 -5.8125 "/></g></g></g><g fill="#ffffff" fill-opacity="1"><g transform="translate(79.790069, 78.715112)"><g><path d="M 18.5 0 L 9.4375 0 L 1.25 -34.46875 L 9.28125 -34.46875 L 14.34375 -11.15625 L 15 -11.15625 L 21.5625 -34.46875 L 29.0625 -34.46875 L 35.84375 -11.15625 L 36.5 -11.15625 L 41.375 -34.46875 L 49.1875 -34.46875 L 41.09375 0 L 32 0 L 25.46875 -23.46875 L 24.8125 -23.46875 Z M 18.5 0 "/></g></g></g><g fill="#ffffff" fill-opacity="1"><g transform="translate(130.195244, 78.715112)"><g><path d="M 16.125 0.65625 C 13.769531 0.65625 11.613281 0.378906 9.65625 -0.171875 C 7.695312 -0.722656 6.023438 -1.484375 4.640625 -2.453125 C 3.253906 -3.421875 2.226562 -4.53125 1.5625 -5.78125 L 6.375 -10.96875 L 7.03125 -10.96875 C 8.175781 -9.425781 9.53125 -8.269531 11.09375 -7.5 C 12.65625 -6.726562 14.351562 -6.34375 16.1875 -6.34375 C 17.875 -6.34375 19.144531 -6.644531 20 -7.25 C 20.851562 -7.851562 21.28125 -8.71875 21.28125 -9.84375 C 21.28125 -10.71875 20.972656 -11.453125 20.359375 -12.046875 C 19.742188 -12.640625 18.75 -13.101562 17.375 -13.4375 L 12.8125 -14.53125 C 9.394531 -15.34375 6.898438 -16.585938 5.328125 -18.265625 C 3.753906 -19.941406 2.96875 -22.070312 2.96875 -24.65625 C 2.96875 -26.800781 3.515625 -28.664062 4.609375 -30.25 C 5.703125 -31.832031 7.242188 -33.039062 9.234375 -33.875 C 11.222656 -34.707031 13.539062 -35.125 16.1875 -35.125 C 19.289062 -35.125 21.863281 -34.675781 23.90625 -33.78125 C 25.945312 -32.882812 27.539062 -31.6875 28.6875 -30.1875 L 24.0625 -25.1875 L 23.4375 -25.1875 C 22.476562 -26.269531 21.398438 -27.0625 20.203125 -27.5625 C 19.003906 -28.0625 17.664062 -28.3125 16.1875 -28.3125 C 12.769531 -28.3125 11.0625 -27.25 11.0625 -25.125 C 11.0625 -24.226562 11.378906 -23.5 12.015625 -22.9375 C 12.648438 -22.375 13.769531 -21.914062 15.375 -21.5625 L 19.625 -20.625 C 23.125 -19.875 25.679688 -18.671875 27.296875 -17.015625 C 28.910156 -15.359375 29.71875 -13.132812 29.71875 -10.34375 C 29.71875 -8.15625 29.175781 -6.226562 28.09375 -4.5625 C 27.007812 -2.894531 25.445312 -1.609375 23.40625 -0.703125 C 21.363281 0.203125 18.9375 0.65625 16.125 0.65625 Z M 16.125 0.65625 "/></g></g></g></svg>