<svg xmlns="http://www.w3.org/2000/svg" xmlns:xlink="http://www.w3.org/1999/xlink" width="300" zoomAndPan="magnify" viewBox="0 0 224.87999 168.749997" height="225" preserveAspectRatio="xMidYMid meet" version="1.0"><defs><clipPath id="a9be161ead"><path d="M 0.105469 0 L 224.652344 0 L 224.652344 168.5 L 0.105469 168.5 Z M 0.105469 0 " clip-rule="nonzero"/></clipPath><clipPath id="ae4ece29f3"><path d="M 45 41.714844 L 76 41.714844 L 76 92 L 45 92 Z M 45 41.714844 " clip-rule="nonzero"/></clipPath><clipPath id="aa69de965a"><path d="M 110 58 L 207.921875 58 L 207.921875 110 L 110 110 Z M 110 58 " clip-rule="nonzero"/></clipPath></defs><g clip-path="url(#a9be161ead)"><path fill="#ffffff" d="M 0.105469 0 L 224.773438 0 L 224.773438 168.5 L 0.105469 168.5 Z M 0.105469 0 " fill-opacity="1" fill-rule="nonzero"/><path fill="#ffffff" d="M 0.105469 0 L 224.773438 0 L 224.773438 168.5 L 0.105469 168.5 Z M 0.105469 0 " fill-opacity="1" fill-rule="nonzero"/></g><path fill="#4e7896" d="M 46 107.148438 C 46 107.148438 42.761719 109.125 48.253906 109.695312 C 54.855469 110.539062 58.390625 110.398438 65.714844 108.988281 C 65.714844 108.988281 67.683594 110.257812 70.359375 111.25 C 53.886719 118.316406 33.046875 110.828125 46 107.152344 Z M 43.886719 97.964844 C 43.886719 97.964844 40.367188 100.648438 45.859375 101.214844 C 53.039062 101.921875 58.691406 102.0625 68.386719 100.085938 C 68.386719 100.085938 69.652344 101.5 71.765625 102.203125 C 51.914062 108.140625 29.667969 102.769531 43.886719 97.964844 Z M 82.75 114.074219 C 82.75 114.074219 85.144531 116.050781 80.074219 117.605469 C 70.640625 120.433594 40.507812 121.28125 32.0625 117.605469 C 29.105469 116.335938 34.738281 114.480469 36.566406 114.214844 C 38.398438 113.792969 39.382812 113.792969 39.382812 113.792969 C 36.144531 111.53125 17.839844 118.457031 30.089844 120.417969 C 63.738281 125.925781 91.476562 118.011719 82.746094 114.058594 Z M 47.546875 88.355469 C 47.546875 88.355469 32.199219 92.027344 42.054688 93.300781 C 46.277344 93.863281 54.585938 93.722656 62.328125 93.15625 C 68.664062 92.59375 75 91.460938 75 91.460938 C 75 91.460938 72.746094 92.453125 71.199219 93.4375 C 55.570312 97.535156 25.582031 95.703125 34.171875 91.460938 C 41.492188 87.929688 47.546875 88.332031 47.546875 88.332031 Z M 75.003906 103.757812 C 90.773438 95.5625 83.449219 87.648438 78.382812 88.636719 C 77.117188 88.921875 76.550781 89.203125 76.550781 89.203125 C 76.550781 89.203125 76.96875 88.355469 77.957031 88.070312 C 87.953125 84.539062 95.839844 98.671875 74.71875 104.183594 C 74.71875 104.183594 74.859375 104.042969 75 103.757812 Z M 49.097656 126.085938 C 64.304688 127.074219 87.539062 125.519531 88.097656 118.3125 C 88.097656 118.3125 86.972656 121.140625 75.566406 123.257812 C 62.617188 125.664062 46.5625 125.378906 37.128906 123.824219 C 37.128906 123.824219 39.097656 125.519531 49.097656 126.085938 Z M 49.097656 126.085938 " fill-opacity="1" fill-rule="nonzero"/><g clip-path="url(#ae4ece29f3)"><path fill="#f58219" d="M 65.429688 41.714844 C 65.429688 41.714844 74.160156 50.621094 57.121094 64.046875 C 43.464844 74.925781 54.003906 81.148438 57.121094 88.210938 C 49.097656 81.003906 43.324219 74.644531 47.265625 68.707031 C 53.039062 59.945312 68.945312 55.707031 65.425781 41.714844 Z M 60.921875 82.277344 C 65.003906 86.941406 59.796875 91.183594 59.796875 91.183594 C 59.796875 91.183594 70.214844 85.808594 65.425781 79.167969 C 61.066406 72.808594 57.683594 69.699219 75.984375 59.097656 C 75.984375 59.097656 47.121094 66.304688 60.921875 82.273438 Z M 60.921875 82.277344 " fill-opacity="1" fill-rule="nonzero"/></g><g clip-path="url(#aa69de965a)"><path fill="#4e7896" d="M 151.152344 99.054688 L 151.152344 77.566406 C 151.152344 72.085938 148.09375 68.359375 140.449219 68.359375 C 136.082031 68.359375 132.367188 69.457031 129.09375 70.769531 L 130.183594 74.71875 C 132.585938 73.839844 135.648438 72.964844 138.921875 72.964844 C 143.070312 72.964844 145.035156 74.71875 145.035156 78.226562 L 145.035156 81.078125 L 142.871094 81.078125 C 132.382812 81.078125 127.582031 85.023438 127.582031 91.382812 C 127.582031 96.644531 130.859375 99.714844 136.753906 99.714844 C 140.46875 99.714844 143.308594 97.960938 145.929688 95.765625 L 146.363281 99.054688 L 151.167969 99.054688 Z M 145.03125 92.039062 C 142.851562 94.011719 140.445312 95.109375 138.261719 95.109375 C 135.421875 95.109375 133.675781 93.355469 133.675781 90.289062 C 133.675781 87.21875 135.421875 85.023438 142.410156 85.023438 L 145.03125 85.023438 Z M 171.679688 99.054688 L 164.035156 99.054688 L 154.863281 69.019531 L 161.417969 69.019531 L 167.097656 87.4375 L 168.40625 92.921875 C 171.25 85.027344 173.429688 76.917969 174.304688 69.027344 L 180.855469 69.027344 C 179.109375 78.894531 176.054688 89.632812 171.683594 99.058594 Z M 207.0625 99.054688 L 207.0625 77.566406 C 207.0625 72.085938 204.003906 68.359375 196.355469 68.359375 C 191.988281 68.359375 188.277344 69.457031 185 70.769531 L 185.875 74.71875 C 188.496094 73.839844 191.550781 72.964844 194.828125 72.964844 C 198.980469 72.964844 200.945312 74.71875 200.945312 78.226562 L 200.945312 81.078125 L 198.761719 81.078125 C 188.277344 81.078125 183.472656 85.023438 183.472656 91.382812 C 183.472656 96.644531 186.53125 99.714844 192.429688 99.714844 C 196.359375 99.714844 199.199219 97.960938 201.820312 95.765625 L 202.257812 99.054688 Z M 200.949219 92.039062 C 198.765625 94.011719 196.359375 95.109375 194.175781 95.109375 C 191.335938 95.109375 189.589844 93.355469 189.589844 90.289062 C 189.589844 87.21875 191.335938 85.023438 198.324219 85.023438 L 200.949219 85.023438 Z M 120.789062 104.097656 C 119.042969 106.726562 116.417969 108.699219 113.144531 109.796875 L 110.300781 106.289062 C 112.488281 104.972656 114.671875 103 115.546875 101.25 C 116.417969 99.714844 116.636719 97.519531 116.636719 92.480469 L 116.636719 58.277344 L 123.191406 58.277344 L 123.191406 92.039062 C 123.191406 98.835938 122.535156 101.464844 120.789062 104.097656 Z M 120.789062 104.097656 " fill-opacity="1" fill-rule="nonzero"/></g></svg>