<svg xmlns="http://www.w3.org/2000/svg" xmlns:xlink="http://www.w3.org/1999/xlink" width="300" zoomAndPan="magnify" viewBox="0 0 224.87999 168.749997" height="225" preserveAspectRatio="xMidYMid meet" version="1.0"><defs><g/><clipPath id="120651fb29"><path d="M 0.105469 0 L 224.652344 0 L 224.652344 168.5 L 0.105469 168.5 Z M 0.105469 0 " clip-rule="nonzero"/></clipPath></defs><g clip-path="url(#120651fb29)"><path fill="#ffffff" d="M 0.105469 0 L 224.773438 0 L 224.773438 168.5 L 0.105469 168.5 Z M 0.105469 0 " fill-opacity="1" fill-rule="nonzero"/><path fill="#ffffff" d="M 0.105469 0 L 224.773438 0 L 224.773438 168.5 L 0.105469 168.5 Z M 0.105469 0 " fill-opacity="1" fill-rule="nonzero"/></g><g fill="#68902b" fill-opacity="1"><g transform="translate(22.98849, 102.72532)"><g><path d="M 10.609375 0 L 4.4375 0 L 4.4375 -34.09375 L 13.25 -34.09375 L 21.875 -9.03125 L 22.359375 -9.03125 L 30.953125 -34.09375 L 39.5625 -34.09375 L 39.5625 0 L 33.171875 0 L 33.171875 -22.53125 L 32.578125 -22.625 L 24.703125 0 L 19.078125 0 L 11.1875 -22.625 L 10.609375 -22.53125 Z M 10.609375 0 "/></g></g></g><g fill="#ff0000" fill-opacity="1"><g transform="translate(79.09677, 102.72532)"><g><path d="M 11.171875 -14.96875 L 11.171875 -5.640625 L 27.453125 -5.640625 L 27.453125 0 L 4.4375 0 L 4.4375 -34.09375 L 27.078125 -34.09375 L 27.078125 -28.453125 L 11.171875 -28.453125 L 11.171875 -20.484375 L 25.078125 -20.484375 L 25.078125 -14.96875 Z M 11.171875 -14.96875 "/></g></g></g><g fill="#56aeff" fill-opacity="1"><g transform="translate(120.508073, 102.72532)"><g><path d="M 4.4375 0 L 4.4375 -34.09375 L 18.125 -34.09375 C 21.65625 -34.09375 24.316406 -33.28125 26.109375 -31.65625 C 27.898438 -30.03125 28.796875 -27.789062 28.796875 -24.9375 C 28.796875 -22.863281 28.269531 -21.164062 27.21875 -19.84375 C 26.175781 -18.519531 24.613281 -17.507812 22.53125 -16.8125 L 22.53125 -16.328125 C 23.601562 -15.859375 24.46875 -15.164062 25.125 -14.25 C 25.789062 -13.332031 26.421875 -11.972656 27.015625 -10.171875 L 30.40625 0 L 23.484375 0 L 20.15625 -10.1875 C 19.8125 -11.21875 19.425781 -12.015625 19 -12.578125 C 18.570312 -13.148438 18.023438 -13.5625 17.359375 -13.8125 C 16.703125 -14.070312 15.84375 -14.203125 14.78125 -14.203125 L 11.171875 -14.203125 L 11.171875 0 Z M 17.3125 -19.546875 C 20.570312 -19.546875 22.203125 -21.066406 22.203125 -24.109375 C 22.203125 -27.203125 20.570312 -28.75 17.3125 -28.75 L 11.171875 -28.75 L 11.171875 -19.546875 Z M 17.3125 -19.546875 "/></g></g></g><g fill="#314528" fill-opacity="1"><g transform="translate(164.481986, 102.72532)"><g><path d="M 10.96875 0 L 4.4375 0 L 4.4375 -34.09375 L 12.15625 -34.09375 L 25.84375 -12.125 L 26.453125 -12.21875 L 26.453125 -34.09375 L 32.9375 -34.09375 L 32.9375 0 L 26.03125 0 L 11.546875 -23.46875 L 10.96875 -23.375 Z M 10.96875 0 "/></g></g></g></svg>