<svg xmlns="http://www.w3.org/2000/svg" xmlns:xlink="http://www.w3.org/1999/xlink" width="300" zoomAndPan="magnify" viewBox="0 0 224.87999 168.749997" height="225" preserveAspectRatio="xMidYMid meet" version="1.0"><defs><g/><clipPath id="2d17e7ed3d"><path d="M 0.105469 0 L 224.652344 0 L 224.652344 168.5 L 0.105469 168.5 Z M 0.105469 0 " clip-rule="nonzero"/></clipPath><clipPath id="02cd8b62cd"><path d="M 67.84375 18 L 156.964844 18 L 156.964844 98 L 67.84375 98 Z M 67.84375 18 " clip-rule="nonzero"/></clipPath></defs><g clip-path="url(#2d17e7ed3d)"><path fill="#ffffff" d="M 0.105469 0 L 224.773438 0 L 224.773438 168.5 L 0.105469 168.5 Z M 0.105469 0 " fill-opacity="1" fill-rule="nonzero"/><path fill="#ffffff" d="M 0.105469 0 L 224.773438 0 L 224.773438 168.5 L 0.105469 168.5 Z M 0.105469 0 " fill-opacity="1" fill-rule="nonzero"/></g><g clip-path="url(#02cd8b62cd)"><path fill="#00d8ff" d="M 141.054688 44.132812 C 140.136719 43.816406 139.179688 43.515625 138.191406 43.230469 C 138.355469 42.570312 138.503906 41.921875 138.636719 41.28125 C 140.800781 30.773438 139.386719 22.308594 134.550781 19.519531 C 129.910156 16.847656 122.320312 19.636719 114.660156 26.296875 C 113.921875 26.9375 113.183594 27.617188 112.445312 28.324219 C 111.953125 27.855469 111.464844 27.402344 110.972656 26.96875 C 102.941406 19.84375 94.890625 16.84375 90.058594 19.636719 C 85.425781 22.316406 84.050781 30.277344 86.003906 40.234375 C 86.191406 41.195312 86.410156 42.179688 86.660156 43.175781 C 85.519531 43.5 84.421875 43.84375 83.367188 44.210938 C 73.953125 47.488281 67.941406 52.628906 67.941406 57.960938 C 67.941406 63.460938 74.394531 68.988281 84.203125 72.335938 C 84.976562 72.597656 85.777344 72.847656 86.605469 73.085938 C 86.339844 74.164062 86.105469 75.222656 85.910156 76.257812 C 84.046875 86.042969 85.5 93.8125 90.125 96.472656 C 94.898438 99.222656 102.910156 96.394531 110.710938 89.585938 C 111.332031 89.046875 111.949219 88.472656 112.566406 87.878906 C 113.375 88.648438 114.175781 89.378906 114.972656 90.066406 C 122.53125 96.5625 129.996094 99.1875 134.613281 96.519531 C 139.382812 93.757812 140.933594 85.410156 138.917969 75.257812 C 138.765625 74.480469 138.585938 73.6875 138.386719 72.882812 C 138.949219 72.71875 139.503906 72.542969 140.039062 72.367188 C 150.234375 68.992188 156.867188 63.539062 156.867188 57.960938 C 156.867188 52.609375 150.660156 47.433594 141.054688 44.132812 Z M 138.847656 68.765625 C 138.359375 68.925781 137.859375 69.082031 137.351562 69.230469 C 136.226562 65.671875 134.707031 61.886719 132.847656 57.976562 C 134.621094 54.160156 136.082031 50.421875 137.175781 46.886719 C 138.085938 47.152344 138.96875 47.429688 139.820312 47.71875 C 148.046875 50.550781 153.066406 54.734375 153.066406 57.960938 C 153.066406 61.390625 147.648438 65.851562 138.847656 68.765625 Z M 135.191406 75.992188 C 136.085938 80.484375 136.210938 84.542969 135.617188 87.71875 C 135.089844 90.570312 134.023438 92.472656 132.707031 93.230469 C 129.90625 94.851562 123.914062 92.746094 117.453125 87.191406 C 116.707031 86.550781 115.960938 85.871094 115.214844 85.152344 C 117.71875 82.414062 120.222656 79.234375 122.667969 75.699219 C 126.964844 75.320312 131.027344 74.695312 134.710938 73.84375 C 134.894531 74.578125 135.054688 75.292969 135.191406 75.992188 Z M 98.257812 92.949219 C 95.523438 93.917969 93.339844 93.945312 92.023438 93.1875 C 89.21875 91.570312 88.050781 85.332031 89.640625 76.964844 C 89.824219 76.007812 90.042969 75.019531 90.292969 74.015625 C 93.933594 74.820312 97.964844 75.398438 102.273438 75.746094 C 104.734375 79.207031 107.3125 82.382812 109.910156 85.167969 C 109.34375 85.714844 108.777344 86.234375 108.214844 86.726562 C 104.765625 89.742188 101.308594 91.878906 98.257812 92.949219 Z M 85.433594 68.742188 C 81.097656 67.261719 77.515625 65.339844 75.0625 63.238281 C 72.855469 61.351562 71.742188 59.480469 71.742188 57.960938 C 71.742188 54.726562 76.570312 50.597656 84.621094 47.792969 C 85.597656 47.453125 86.621094 47.132812 87.679688 46.832031 C 88.792969 50.449219 90.253906 54.230469 92.015625 58.050781 C 90.230469 61.929688 88.75 65.769531 87.628906 69.429688 C 86.871094 69.210938 86.136719 68.984375 85.433594 68.742188 Z M 89.730469 39.503906 C 88.0625 30.972656 89.171875 24.539062 91.964844 22.921875 C 94.9375 21.203125 101.515625 23.65625 108.449219 29.804688 C 108.894531 30.199219 109.339844 30.609375 109.785156 31.035156 C 107.203125 33.804688 104.648438 36.960938 102.210938 40.398438 C 98.027344 40.785156 94.023438 41.410156 90.34375 42.242188 C 90.113281 41.3125 89.90625 40.398438 89.730469 39.503906 Z M 128.089844 48.964844 C 127.210938 47.449219 126.304688 45.964844 125.386719 44.523438 C 128.222656 44.882812 130.941406 45.359375 133.492188 45.941406 C 132.730469 48.394531 131.773438 50.960938 130.648438 53.589844 C 129.84375 52.058594 128.988281 50.515625 128.089844 48.964844 Z M 112.445312 33.746094 C 114.199219 35.644531 115.953125 37.761719 117.679688 40.058594 C 115.941406 39.976562 114.179688 39.933594 112.40625 39.933594 C 110.648438 39.933594 108.898438 39.972656 107.171875 40.054688 C 108.894531 37.78125 110.667969 35.664062 112.445312 33.746094 Z M 96.703125 48.992188 C 95.824219 50.515625 94.988281 52.050781 94.195312 53.585938 C 93.089844 50.964844 92.140625 48.386719 91.367188 45.898438 C 93.90625 45.332031 96.613281 44.867188 99.429688 44.515625 C 98.496094 45.972656 97.585938 47.464844 96.703125 48.992188 Z M 99.511719 71.667969 C 96.597656 71.347656 93.851562 70.90625 91.316406 70.355469 C 92.101562 67.820312 93.070312 65.191406 94.199219 62.511719 C 94.996094 64.050781 95.835938 65.582031 96.71875 67.109375 C 97.621094 68.664062 98.554688 70.183594 99.511719 71.667969 Z M 112.550781 82.4375 C 110.75 80.496094 108.957031 78.347656 107.203125 76.042969 C 108.902344 76.105469 110.640625 76.140625 112.40625 76.140625 C 114.21875 76.140625 116.011719 76.101562 117.773438 76.023438 C 116.042969 78.375 114.289062 80.523438 112.550781 82.4375 Z M 130.683594 62.375 C 131.871094 65.082031 132.875 67.699219 133.671875 70.191406 C 131.09375 70.777344 128.308594 71.25 125.375 71.601562 C 126.300781 70.140625 127.210938 68.632812 128.105469 67.082031 C 129.011719 65.511719 129.871094 63.941406 130.683594 62.375 Z M 124.8125 65.1875 C 123.421875 67.59375 121.996094 69.890625 120.546875 72.0625 C 117.910156 72.25 115.183594 72.347656 112.40625 72.347656 C 109.636719 72.347656 106.945312 72.261719 104.351562 72.09375 C 102.84375 69.894531 101.386719 67.59375 100.007812 65.207031 C 98.628906 62.832031 97.363281 60.433594 96.214844 58.050781 C 97.359375 55.660156 98.625 53.261719 99.996094 50.886719 L 99.996094 50.890625 C 101.367188 48.511719 102.8125 46.214844 104.308594 44.03125 C 106.949219 43.832031 109.664062 43.726562 112.40625 43.726562 C 115.160156 43.726562 117.871094 43.832031 120.515625 44.035156 C 121.988281 46.203125 123.421875 48.488281 124.800781 50.867188 C 126.195312 53.273438 127.476562 55.660156 128.632812 57.996094 C 127.480469 60.375 126.203125 62.78125 124.8125 65.1875 Z M 132.648438 22.808594 C 135.628906 24.523438 136.785156 31.441406 134.914062 40.515625 C 134.796875 41.09375 134.660156 41.683594 134.515625 42.28125 C 130.824219 41.429688 126.820312 40.796875 122.628906 40.402344 C 120.183594 36.929688 117.648438 33.769531 115.105469 31.03125 C 115.792969 30.375 116.476562 29.75 117.152344 29.15625 C 123.71875 23.449219 129.855469 21.199219 132.648438 22.808594 Z M 112.40625 50.023438 C 116.789062 50.023438 120.34375 53.574219 120.34375 57.957031 C 120.34375 62.335938 116.789062 65.890625 112.40625 65.890625 C 108.019531 65.890625 104.464844 62.335938 104.464844 57.957031 C 104.464844 53.574219 108.019531 50.023438 112.40625 50.023438 Z M 112.40625 50.023438 " fill-opacity="1" fill-rule="nonzero"/></g><g fill="#000000" fill-opacity="1"><g transform="translate(27.933502, 130.469287)"><g><path d="M 9.5 0 L 5.953125 -6.09375 L 3.59375 -6.09375 L 3.59375 0 L 1.640625 0 L 1.640625 -14.921875 L 6.46875 -14.921875 C 7.59375 -14.921875 8.539062 -14.726562 9.3125 -14.34375 C 10.09375 -13.957031 10.675781 -13.4375 11.0625 -12.78125 C 11.445312 -12.125 11.640625 -11.375 11.640625 -10.53125 C 11.640625 -9.5 11.34375 -8.59375 10.75 -7.8125 C 10.164062 -7.03125 9.28125 -6.507812 8.09375 -6.25 L 11.84375 0 Z M 3.59375 -7.65625 L 6.46875 -7.65625 C 7.519531 -7.65625 8.304688 -7.914062 8.828125 -8.4375 C 9.359375 -8.957031 9.625 -9.65625 9.625 -10.53125 C 9.625 -11.414062 9.363281 -12.097656 8.84375 -12.578125 C 8.320312 -13.066406 7.53125 -13.3125 6.46875 -13.3125 L 3.59375 -13.3125 Z M 3.59375 -7.65625 "/></g></g></g><g fill="#000000" fill-opacity="1"><g transform="translate(44.029444, 130.469287)"><g><path d="M 12.34375 -6.3125 C 12.34375 -5.945312 12.320312 -5.554688 12.28125 -5.140625 L 2.90625 -5.140625 C 2.976562 -3.984375 3.375 -3.078125 4.09375 -2.421875 C 4.820312 -1.773438 5.695312 -1.453125 6.71875 -1.453125 C 7.5625 -1.453125 8.265625 -1.648438 8.828125 -2.046875 C 9.390625 -2.441406 9.785156 -2.96875 10.015625 -3.625 L 12.109375 -3.625 C 11.796875 -2.488281 11.164062 -1.566406 10.21875 -0.859375 C 9.28125 -0.160156 8.113281 0.1875 6.71875 0.1875 C 5.601562 0.1875 4.609375 -0.0625 3.734375 -0.5625 C 2.859375 -1.0625 2.171875 -1.769531 1.671875 -2.6875 C 1.171875 -3.601562 0.921875 -4.671875 0.921875 -5.890625 C 0.921875 -7.097656 1.160156 -8.160156 1.640625 -9.078125 C 2.128906 -9.992188 2.8125 -10.695312 3.6875 -11.1875 C 4.570312 -11.675781 5.582031 -11.921875 6.71875 -11.921875 C 7.832031 -11.921875 8.816406 -11.675781 9.671875 -11.1875 C 10.523438 -10.707031 11.179688 -10.039062 11.640625 -9.1875 C 12.109375 -8.34375 12.34375 -7.382812 12.34375 -6.3125 Z M 10.34375 -6.71875 C 10.34375 -7.457031 10.175781 -8.09375 9.84375 -8.625 C 9.519531 -9.164062 9.070312 -9.578125 8.5 -9.859375 C 7.9375 -10.140625 7.316406 -10.28125 6.640625 -10.28125 C 5.648438 -10.28125 4.804688 -9.960938 4.109375 -9.328125 C 3.421875 -8.703125 3.03125 -7.832031 2.9375 -6.71875 Z M 10.34375 -6.71875 "/></g></g></g><g fill="#000000" fill-opacity="1"><g transform="translate(60.3822, 130.469287)"><g><path d="M 0.921875 -5.90625 C 0.921875 -7.101562 1.160156 -8.15625 1.640625 -9.0625 C 2.128906 -9.96875 2.796875 -10.671875 3.640625 -11.171875 C 4.492188 -11.671875 5.441406 -11.921875 6.484375 -11.921875 C 7.515625 -11.921875 8.40625 -11.695312 9.15625 -11.25 C 9.914062 -10.8125 10.484375 -10.257812 10.859375 -9.59375 L 10.859375 -11.734375 L 12.828125 -11.734375 L 12.828125 0 L 10.859375 0 L 10.859375 -2.1875 C 10.472656 -1.5 9.894531 -0.929688 9.125 -0.484375 C 8.363281 -0.0351562 7.476562 0.1875 6.46875 0.1875 C 5.425781 0.1875 4.484375 -0.0664062 3.640625 -0.578125 C 2.796875 -1.085938 2.128906 -1.804688 1.640625 -2.734375 C 1.160156 -3.660156 0.921875 -4.71875 0.921875 -5.90625 Z M 10.859375 -5.890625 C 10.859375 -6.773438 10.675781 -7.546875 10.3125 -8.203125 C 9.957031 -8.859375 9.476562 -9.359375 8.875 -9.703125 C 8.269531 -10.054688 7.601562 -10.234375 6.875 -10.234375 C 6.144531 -10.234375 5.476562 -10.0625 4.875 -9.71875 C 4.28125 -9.375 3.800781 -8.875 3.4375 -8.21875 C 3.082031 -7.5625 2.90625 -6.789062 2.90625 -5.90625 C 2.90625 -5.007812 3.082031 -4.226562 3.4375 -3.5625 C 3.800781 -2.894531 4.28125 -2.382812 4.875 -2.03125 C 5.476562 -1.6875 6.144531 -1.515625 6.875 -1.515625 C 7.601562 -1.515625 8.269531 -1.6875 8.875 -2.03125 C 9.476562 -2.382812 9.957031 -2.894531 10.3125 -3.5625 C 10.675781 -4.226562 10.859375 -5.003906 10.859375 -5.890625 Z M 10.859375 -5.890625 "/></g></g></g><g fill="#000000" fill-opacity="1"><g transform="translate(77.933461, 130.469287)"><g><path d="M 0.921875 -5.890625 C 0.921875 -7.097656 1.160156 -8.15625 1.640625 -9.0625 C 2.128906 -9.96875 2.804688 -10.671875 3.671875 -11.171875 C 4.535156 -11.671875 5.523438 -11.921875 6.640625 -11.921875 C 8.078125 -11.921875 9.265625 -11.570312 10.203125 -10.875 C 11.140625 -10.175781 11.753906 -9.207031 12.046875 -7.96875 L 9.953125 -7.96875 C 9.753906 -8.675781 9.363281 -9.238281 8.78125 -9.65625 C 8.207031 -10.070312 7.492188 -10.28125 6.640625 -10.28125 C 5.523438 -10.28125 4.625 -9.894531 3.9375 -9.125 C 3.25 -8.363281 2.90625 -7.285156 2.90625 -5.890625 C 2.90625 -4.472656 3.25 -3.378906 3.9375 -2.609375 C 4.625 -1.835938 5.523438 -1.453125 6.640625 -1.453125 C 7.492188 -1.453125 8.203125 -1.648438 8.765625 -2.046875 C 9.335938 -2.453125 9.734375 -3.023438 9.953125 -3.765625 L 12.046875 -3.765625 C 11.734375 -2.566406 11.101562 -1.609375 10.15625 -0.890625 C 9.21875 -0.171875 8.046875 0.1875 6.640625 0.1875 C 5.523438 0.1875 4.535156 -0.0625 3.671875 -0.5625 C 2.804688 -1.0625 2.128906 -1.765625 1.640625 -2.671875 C 1.160156 -3.585938 0.921875 -4.660156 0.921875 -5.890625 Z M 0.921875 -5.890625 "/></g></g></g><g fill="#000000" fill-opacity="1"><g transform="translate(94.007999, 130.469287)"><g><path d="M 4.03125 -10.125 L 4.03125 -3.203125 C 4.03125 -2.640625 4.148438 -2.238281 4.390625 -2 C 4.628906 -1.757812 5.050781 -1.640625 5.65625 -1.640625 L 7.078125 -1.640625 L 7.078125 0 L 5.328125 0 C 4.242188 0 3.429688 -0.25 2.890625 -0.75 C 2.347656 -1.25 2.078125 -2.066406 2.078125 -3.203125 L 2.078125 -10.125 L 0.5625 -10.125 L 0.5625 -11.734375 L 2.078125 -11.734375 L 2.078125 -14.6875 L 4.03125 -14.6875 L 4.03125 -11.734375 L 7.078125 -11.734375 L 7.078125 -10.125 Z M 4.03125 -10.125 "/></g></g></g><g fill="#000000" fill-opacity="1"><g transform="translate(104.881886, 130.469287)"><g/></g></g><g fill="#000000" fill-opacity="1"><g transform="translate(113.679801, 130.469287)"><g><path d="M 13.375 0 L 11.4375 0 L 3.59375 -11.875 L 3.59375 0 L 1.640625 0 L 1.640625 -14.9375 L 3.59375 -14.9375 L 11.4375 -3.078125 L 11.4375 -14.9375 L 13.375 -14.9375 Z M 13.375 0 "/></g></g></g><g fill="#000000" fill-opacity="1"><g transform="translate(131.808907, 130.469287)"><g><path d="M 0.921875 -5.90625 C 0.921875 -7.101562 1.160156 -8.15625 1.640625 -9.0625 C 2.128906 -9.96875 2.796875 -10.671875 3.640625 -11.171875 C 4.492188 -11.671875 5.441406 -11.921875 6.484375 -11.921875 C 7.515625 -11.921875 8.40625 -11.695312 9.15625 -11.25 C 9.914062 -10.8125 10.484375 -10.257812 10.859375 -9.59375 L 10.859375 -11.734375 L 12.828125 -11.734375 L 12.828125 0 L 10.859375 0 L 10.859375 -2.1875 C 10.472656 -1.5 9.894531 -0.929688 9.125 -0.484375 C 8.363281 -0.0351562 7.476562 0.1875 6.46875 0.1875 C 5.425781 0.1875 4.484375 -0.0664062 3.640625 -0.578125 C 2.796875 -1.085938 2.128906 -1.804688 1.640625 -2.734375 C 1.160156 -3.660156 0.921875 -4.71875 0.921875 -5.90625 Z M 10.859375 -5.890625 C 10.859375 -6.773438 10.675781 -7.546875 10.3125 -8.203125 C 9.957031 -8.859375 9.476562 -9.359375 8.875 -9.703125 C 8.269531 -10.054688 7.601562 -10.234375 6.875 -10.234375 C 6.144531 -10.234375 5.476562 -10.0625 4.875 -9.71875 C 4.28125 -9.375 3.800781 -8.875 3.4375 -8.21875 C 3.082031 -7.5625 2.90625 -6.789062 2.90625 -5.90625 C 2.90625 -5.007812 3.082031 -4.226562 3.4375 -3.5625 C 3.800781 -2.894531 4.28125 -2.382812 4.875 -2.03125 C 5.476562 -1.6875 6.144531 -1.515625 6.875 -1.515625 C 7.601562 -1.515625 8.269531 -1.6875 8.875 -2.03125 C 9.476562 -2.382812 9.957031 -2.894531 10.3125 -3.5625 C 10.675781 -4.226562 10.859375 -5.003906 10.859375 -5.890625 Z M 10.859375 -5.890625 "/></g></g></g><g fill="#000000" fill-opacity="1"><g transform="translate(149.360171, 130.469287)"><g><path d="M 4.03125 -10.125 L 4.03125 -3.203125 C 4.03125 -2.640625 4.148438 -2.238281 4.390625 -2 C 4.628906 -1.757812 5.050781 -1.640625 5.65625 -1.640625 L 7.078125 -1.640625 L 7.078125 0 L 5.328125 0 C 4.242188 0 3.429688 -0.25 2.890625 -0.75 C 2.347656 -1.25 2.078125 -2.066406 2.078125 -3.203125 L 2.078125 -10.125 L 0.5625 -10.125 L 0.5625 -11.734375 L 2.078125 -11.734375 L 2.078125 -14.6875 L 4.03125 -14.6875 L 4.03125 -11.734375 L 7.078125 -11.734375 L 7.078125 -10.125 Z M 4.03125 -10.125 "/></g></g></g><g fill="#000000" fill-opacity="1"><g transform="translate(160.234064, 130.469287)"><g><path d="M 2.65625 -13.640625 C 2.28125 -13.640625 1.960938 -13.765625 1.703125 -14.015625 C 1.453125 -14.273438 1.328125 -14.59375 1.328125 -14.96875 C 1.328125 -15.332031 1.453125 -15.644531 1.703125 -15.90625 C 1.960938 -16.164062 2.28125 -16.296875 2.65625 -16.296875 C 3.007812 -16.296875 3.3125 -16.164062 3.5625 -15.90625 C 3.8125 -15.644531 3.9375 -15.332031 3.9375 -14.96875 C 3.9375 -14.59375 3.8125 -14.273438 3.5625 -14.015625 C 3.3125 -13.765625 3.007812 -13.640625 2.65625 -13.640625 Z M 3.59375 -11.734375 L 3.59375 0 L 1.640625 0 L 1.640625 -11.734375 Z M 3.59375 -11.734375 "/></g></g></g><g fill="#000000" fill-opacity="1"><g transform="translate(168.582543, 130.469287)"><g><path d="M 6.015625 -1.796875 L 9.65625 -11.734375 L 11.734375 -11.734375 L 7.125 0 L 4.859375 0 L 0.25 -11.734375 L 2.359375 -11.734375 Z M 6.015625 -1.796875 "/></g></g></g><g fill="#000000" fill-opacity="1"><g transform="translate(183.672602, 130.469287)"><g><path d="M 12.34375 -6.3125 C 12.34375 -5.945312 12.320312 -5.554688 12.28125 -5.140625 L 2.90625 -5.140625 C 2.976562 -3.984375 3.375 -3.078125 4.09375 -2.421875 C 4.820312 -1.773438 5.695312 -1.453125 6.71875 -1.453125 C 7.5625 -1.453125 8.265625 -1.648438 8.828125 -2.046875 C 9.390625 -2.441406 9.785156 -2.96875 10.015625 -3.625 L 12.109375 -3.625 C 11.796875 -2.488281 11.164062 -1.566406 10.21875 -0.859375 C 9.28125 -0.160156 8.113281 0.1875 6.71875 0.1875 C 5.601562 0.1875 4.609375 -0.0625 3.734375 -0.5625 C 2.859375 -1.0625 2.171875 -1.769531 1.671875 -2.6875 C 1.171875 -3.601562 0.921875 -4.671875 0.921875 -5.890625 C 0.921875 -7.097656 1.160156 -8.160156 1.640625 -9.078125 C 2.128906 -9.992188 2.8125 -10.695312 3.6875 -11.1875 C 4.570312 -11.675781 5.582031 -11.921875 6.71875 -11.921875 C 7.832031 -11.921875 8.816406 -11.675781 9.671875 -11.1875 C 10.523438 -10.707031 11.179688 -10.039062 11.640625 -9.1875 C 12.109375 -8.34375 12.34375 -7.382812 12.34375 -6.3125 Z M 10.34375 -6.71875 C 10.34375 -7.457031 10.175781 -8.09375 9.84375 -8.625 C 9.519531 -9.164062 9.070312 -9.578125 8.5 -9.859375 C 7.9375 -10.140625 7.316406 -10.28125 6.640625 -10.28125 C 5.648438 -10.28125 4.804688 -9.960938 4.109375 -9.328125 C 3.421875 -8.703125 3.03125 -7.832031 2.9375 -6.71875 Z M 10.34375 -6.71875 "/></g></g></g></svg>